<svg width="64" height="62" viewBox="0 0 64 62" fill="none" xmlns="http://www.w3.org/2000/svg">
<path d="M59.6364 8.71424H35.7365C35.7474 7.45952 35.4077 6.22669 34.7557 5.1546C33.9176 3.47846 33.8778 3.07787 34.483 2.46995C34.7501 2.19602 34.8985 1.8279 34.896 1.44533C34.8936 1.06276 34.7406 0.696549 34.47 0.426027C34.1995 0.155504 33.8333 0.00245341 33.4507 2.92397e-05C33.0682 -0.00239493 32.7 0.146002 32.4261 0.413075C30.2297 2.60944 31.3861 4.92449 32.1534 6.45569C32.7887 7.72631 32.9615 8.26362 32.7461 8.71424H4.36364C3.79038 8.71345 3.2226 8.82579 2.69282 9.0448C2.16305 9.26382 1.68169 9.58521 1.27633 9.99057C0.870975 10.3959 0.549582 10.8773 0.330567 11.4071C0.111552 11.9368 -0.000780981 12.5046 4.0867e-06 13.0779V47.987C-0.000761787 48.5602 0.111584 49.128 0.330606 49.6578C0.549628 50.1875 0.871022 50.6689 1.27638 51.0742C1.68173 51.4796 2.16308 51.801 2.69284 52.02C3.22261 52.239 3.79038 52.3514 4.36364 52.3506H37.8182V46.5324H16C15.8085 46.5343 15.6185 46.498 15.4412 46.4255C15.2638 46.3531 15.1027 46.246 14.9673 46.1106C14.8318 45.9751 14.7248 45.8141 14.6523 45.6367C14.5799 45.4594 14.5436 45.2694 14.5455 45.0779V15.987C14.5435 15.7954 14.5798 15.6054 14.6522 15.428C14.7246 15.2507 14.8317 15.0896 14.9671 14.9541C15.1026 14.8187 15.2637 14.7116 15.4411 14.6392C15.6184 14.5668 15.8084 14.5305 16 14.5324H56.7273C56.9188 14.5305 57.1088 14.5668 57.2862 14.6392C57.4635 14.7116 57.6247 14.8187 57.7601 14.9541C57.8956 15.0896 58.0027 15.2507 58.0751 15.428C58.1475 15.6054 58.1838 15.7954 58.1818 15.987V45.0779C58.1837 45.2694 58.1474 45.4594 58.0749 45.6367C58.0025 45.8141 57.8954 45.9751 57.76 46.1106C57.6245 46.246 57.4635 46.3531 57.2861 46.4255C57.1088 46.498 56.9188 46.5343 56.7273 46.5324H49.4545V52.3506H59.6364C60.2096 52.3514 60.7774 52.239 61.3072 52.02C61.8369 51.801 62.3183 51.4796 62.7236 51.0742C63.129 50.6689 63.4504 50.1875 63.6694 49.6578C63.8884 49.128 64.0008 48.5602 64 47.987V13.0779C64.0008 12.5046 63.8885 11.9368 63.6694 11.4071C63.4504 10.8773 63.129 10.3959 62.7237 9.99057C62.3183 9.58521 61.837 9.26382 61.3072 9.0448C60.7774 8.82579 60.2096 8.71345 59.6364 8.71424ZM10.1818 43.6233H7.27273C6.88696 43.6233 6.51699 43.4701 6.24421 43.1973C5.97143 42.9245 5.81819 42.5546 5.81819 42.1688C5.81819 41.783 5.97143 41.413 6.24421 41.1403C6.51699 40.8675 6.88696 40.7142 7.27273 40.7142H10.1818C10.5676 40.7142 10.9376 40.8675 11.2103 41.1403C11.4831 41.413 11.6364 41.783 11.6364 42.1688C11.6364 42.5546 11.4831 42.9245 11.2103 43.1973C10.9376 43.4701 10.5676 43.6233 10.1818 43.6233ZM10.1818 26.1688H7.27273C6.88696 26.1688 6.51699 26.0155 6.24421 25.7428C5.97143 25.47 5.81819 25.1 5.81819 24.7142C5.81819 24.3285 5.97143 23.9585 6.24421 23.6857C6.51699 23.4129 6.88696 23.2597 7.27273 23.2597H10.1818C10.5676 23.2597 10.9376 23.4129 11.2103 23.6857C11.4831 23.9585 11.6364 24.3285 11.6364 24.7142C11.6364 25.1 11.4831 25.47 11.2103 25.7428C10.9376 26.0155 10.5676 26.1688 10.1818 26.1688ZM10.1818 20.3506H7.27273C6.88696 20.3506 6.51699 20.1974 6.24421 19.9246C5.97143 19.6518 5.81819 19.2818 5.81819 18.8961C5.81819 18.5103 5.97143 18.1403 6.24421 17.8675C6.51699 17.5948 6.88696 17.4415 7.27273 17.4415H10.1818C10.5676 17.4415 10.9376 17.5948 11.2103 17.8675C11.4831 18.1403 11.6364 18.5103 11.6364 18.8961C11.6364 19.2818 11.4831 19.6518 11.2103 19.9246C10.9376 20.1974 10.5676 20.3506 10.1818 20.3506Z" fill="#3C97EF"/>
<path d="M44.8499 25.6628L49.4541 32.5692V43.6237H55.2723V17.4419H17.4541V43.6237H37.8177V32.5692L42.422 25.6628C42.5552 25.4629 42.7357 25.2991 42.9475 25.1858C43.1593 25.0725 43.3957 25.0132 43.6359 25.0132C43.8761 25.0132 44.1126 25.0725 44.3243 25.1858C44.5361 25.2991 44.7166 25.4629 44.8499 25.6628Z" fill="#3C97EF"/>
<path d="M40.728 33.4415V59.6233C40.7279 59.8144 40.7655 60.0036 40.8385 60.1801C40.9116 60.3566 41.0187 60.517 41.1538 60.6521C41.2889 60.7872 41.4493 60.8943 41.6258 60.9674C41.8023 61.0404 41.9915 61.078 42.1826 61.0779H45.0917C45.2827 61.078 45.4719 61.0404 45.6484 60.9674C45.825 60.8943 45.9853 60.7872 46.1204 60.6521C46.2555 60.517 46.3627 60.3566 46.4357 60.1801C46.5088 60.0036 46.5463 59.8144 46.5462 59.6233V33.4415L43.6371 29.0779L40.728 33.4415Z" fill="#3C97EF"/>
</svg>
