<svg width="62" height="68" viewBox="0 0 62 68" fill="none" xmlns="http://www.w3.org/2000/svg">
<path d="M47.9091 49.4545H43.2727V47.9091C43.2727 47.4992 43.1099 47.1061 42.8201 46.8163C42.5302 46.5265 42.1371 46.3636 41.7273 46.3636C41.3174 46.3636 40.9243 46.5265 40.6345 46.8163C40.3446 47.1061 40.1818 47.4992 40.1818 47.9091V50.5518C38.9047 52.675 35.2528 54.0909 30.9091 54.0909C26.5654 54.0909 22.9135 52.675 21.6364 50.5518V44.0228C21.6365 43.795 21.5863 43.5699 21.4892 43.3638C21.3921 43.1576 21.2506 42.9755 21.0749 42.8305C19.3148 41.3826 17.8978 39.5624 16.926 37.501C15.9541 35.4395 15.4515 33.1881 15.4545 30.9091V24.7273C15.4545 20.6285 17.0828 16.6975 19.9811 13.7993C22.8794 10.901 26.8103 9.27273 30.9091 9.27273C35.0079 9.27273 38.9388 10.901 41.8371 13.7993C44.7354 16.6975 46.3636 20.6285 46.3636 24.7273V32.4545C46.3636 36.9883 42.3609 39.3661 39.8383 39.9932C39.4928 39.1371 38.8998 38.4036 38.135 37.8866C37.3702 37.3696 36.4686 37.0925 35.5455 37.0909H32.4545C31.2249 37.0909 30.0456 37.5794 29.1761 38.4489C28.3067 39.3184 27.8182 40.4976 27.8182 41.7273C27.8182 42.9569 28.3067 44.1362 29.1761 45.0057C30.0456 45.8752 31.2249 46.3636 32.4545 46.3636H35.5455C36.5258 46.3602 37.4798 46.0455 38.2697 45.4648C39.0596 44.8842 39.6447 44.0676 39.9405 43.1329C41.8189 42.7893 43.5871 41.9986 45.0956 40.8277C46.6041 39.6568 47.8087 38.14 48.6075 36.4055C49.3266 36.85 50.1546 37.0872 51 37.0909C52.2292 37.0896 53.4077 36.6007 54.2769 35.7315C55.1461 34.8623 55.635 33.6838 55.6364 32.4545V24.7273C55.6364 18.1692 53.0312 11.8797 48.3939 7.24245C43.7566 2.60519 37.4672 0 30.9091 0C24.351 0 18.0615 2.60519 13.4243 7.24245C8.78701 11.8797 6.18182 18.1692 6.18182 24.7273V32.4545C6.18317 33.6838 6.67207 34.8623 7.54127 35.7315C8.41046 36.6007 9.58896 37.0896 10.8182 37.0909C11.662 37.0872 12.4884 36.8508 13.2065 36.4078C14.1972 39.616 16.0429 42.4937 18.5455 44.7322V49.4545H13.9091C6.20446 49.4545 2.78543e-07 58.7545 2.78543e-07 66.4545C-0.000121623 66.6575 0.0397693 66.8586 0.117393 67.0461C0.195016 67.2337 0.308849 67.4041 0.452382 67.5476C0.595915 67.6911 0.766333 67.805 0.953891 67.8826C1.14145 67.9602 1.34247 68.0001 1.54545 68H60.2727C60.4757 68.0001 60.6767 67.9602 60.8643 67.8826C61.0518 67.805 61.2223 67.6911 61.3658 67.5476C61.5093 67.4041 61.6232 67.2337 61.7008 67.0461C61.7784 66.8586 61.8183 66.6575 61.8182 66.4545C61.8182 58.7545 55.6137 49.4545 47.9091 49.4545ZM9.48608 21.8548C10.1763 16.662 12.7291 11.8966 16.6697 8.44503C20.6104 4.99348 25.6706 3.09074 30.9091 3.09074C36.1476 3.09074 41.2078 4.99348 45.1484 8.44503C49.0891 11.8966 51.6419 16.662 52.3321 21.8548C51.3157 21.5221 50.213 21.5705 49.2297 21.991C48.5795 17.5967 46.3716 13.5825 43.0085 10.6804C39.6454 7.77829 35.3512 6.18165 30.9091 6.18165C26.4669 6.18165 22.1728 7.77829 18.8097 10.6804C15.4466 13.5825 13.2387 17.5967 12.5885 21.991C11.6052 21.5705 10.5025 21.5221 9.48608 21.8548Z" fill="#E6A947"/>
<path d="M29.3241 24.3832C29.1007 23.5454 28.6085 22.8041 27.923 22.2732C27.2375 21.7423 26.3967 21.4511 25.5297 21.4445C24.6627 21.4378 23.8174 21.7159 23.1238 22.2362C22.4302 22.7565 21.9266 23.4901 21.6904 24.3243C21.6371 24.5201 21.623 24.7245 21.6487 24.9258C21.6745 25.1271 21.7398 25.3213 21.8407 25.4974C21.9416 25.6735 22.0763 25.8279 22.237 25.9519C22.3976 26.0758 22.5812 26.1669 22.7771 26.2199C22.9093 26.2563 23.0459 26.2745 23.1831 26.274C23.5222 26.2739 23.8519 26.1621 24.1212 25.9559C24.3905 25.7498 24.5843 25.4606 24.6729 25.1333C24.7378 24.9527 24.8585 24.7974 25.0175 24.69C25.1765 24.5826 25.3655 24.5285 25.5573 24.5356C25.7264 24.5221 25.8948 24.5687 26.0329 24.6673C26.171 24.7659 26.2698 24.91 26.3119 25.0744C26.3552 25.2743 26.4378 25.4636 26.5548 25.6313C26.6719 25.799 26.821 25.9419 26.9937 26.0515C27.1663 26.1612 27.359 26.2355 27.5606 26.2701C27.7621 26.3048 27.9686 26.2991 28.1679 26.2533C28.3673 26.2076 28.5556 26.1227 28.7219 26.0037C28.8882 25.8846 29.0292 25.7338 29.1368 25.5598C29.2443 25.3858 29.3163 25.1923 29.3485 24.9903C29.3807 24.7883 29.3725 24.5819 29.3243 24.3832H29.3241Z" fill="#E6A947"/>
<path d="M34.0017 26.2743C34.3409 26.2742 34.6706 26.1624 34.9399 25.9561C35.2091 25.7499 35.403 25.4607 35.4915 25.1333C35.5539 24.9511 35.674 24.7942 35.8336 24.6863C35.9932 24.5785 36.1836 24.5256 36.3759 24.5356C36.545 24.5221 36.7135 24.5687 36.8515 24.6673C36.9896 24.7659 37.0884 24.91 37.1305 25.0744C37.1739 25.2743 37.2564 25.4636 37.3735 25.6313C37.4905 25.799 37.6396 25.9419 37.8123 26.0515C37.9849 26.1612 38.1776 26.2355 38.3792 26.2701C38.5808 26.3048 38.7872 26.2991 38.9865 26.2533C39.1859 26.2076 39.3742 26.1227 39.5405 26.0037C39.7068 25.8846 39.8478 25.7338 39.9554 25.5598C40.063 25.3858 40.1349 25.1923 40.1671 24.9903C40.1993 24.7883 40.1911 24.5819 40.1429 24.3832C39.9196 23.5454 39.4274 22.8041 38.7419 22.2732C38.0564 21.7423 37.2155 21.4511 36.3485 21.4445C35.4815 21.4378 34.6363 21.7159 33.9427 22.2362C33.2491 22.7565 32.7455 23.4901 32.5092 24.3243C32.456 24.5201 32.4418 24.7245 32.4676 24.9258C32.4934 25.1271 32.5586 25.3213 32.6595 25.4974C32.7605 25.6735 32.8951 25.8279 33.0558 25.9519C33.2165 26.0758 33.4 26.1669 33.5959 26.2199C33.7281 26.2564 33.8646 26.2747 34.0017 26.2743Z" fill="#E6A947"/>
</svg>
