<svg width="58" height="53" viewBox="0 0 58 53" fill="none" xmlns="http://www.w3.org/2000/svg">
<path d="M50.75 0H7.25C5.32773 0.00178522 3.4847 0.766196 2.12545 2.12545C0.766196 3.4847 0.00178522 5.32773 0 7.25V8.7H58V7.25C57.9982 5.32773 57.2338 3.4847 55.8746 2.12545C54.5153 0.766196 52.6723 0.00178522 50.75 0Z" fill="#DB5422"/>
<path d="M0 44.9501C0.00178522 46.8724 0.766196 48.7154 2.12545 50.0746C3.4847 51.4339 5.32773 52.1983 7.25 52.2001H50.75C52.6723 52.1983 54.5153 51.4339 55.8746 50.0746C57.2338 48.7154 57.9982 46.8724 58 44.9501V11.6001H0V44.9501ZM36.6748 27.1253C36.4085 26.8522 36.2606 26.4853 36.263 26.1039C36.2654 25.7225 36.418 25.3575 36.6877 25.0878C36.9574 24.8181 37.3224 24.6655 37.7038 24.6631C38.0852 24.6607 38.4522 24.8086 38.7252 25.0749L44.5252 30.8749C44.7971 31.1468 44.9498 31.5156 44.9498 31.9001C44.9498 32.2846 44.7971 32.6534 44.5252 32.9253L38.7252 38.7253C38.4522 38.9916 38.0852 39.1395 37.7038 39.1371C37.3224 39.1347 36.9574 38.9821 36.6877 38.7124C36.418 38.4427 36.2654 38.0777 36.263 37.6963C36.2606 37.3149 36.4085 36.9479 36.6748 36.6749L41.4496 31.9001L36.6748 27.1253ZM24.7066 41.6508L30.5066 21.3508C30.5582 21.1669 30.6457 20.995 30.764 20.845C30.8823 20.695 31.029 20.5698 31.1958 20.4767C31.3626 20.3836 31.5462 20.3244 31.7359 20.3025C31.9257 20.2806 32.1179 20.2964 32.3015 20.3491C32.4852 20.4017 32.6566 20.4901 32.8059 20.6092C32.9553 20.7283 33.0796 20.8757 33.1718 21.043C33.2639 21.2103 33.3221 21.3942 33.343 21.5841C33.3639 21.774 33.347 21.9661 33.2934 22.1494L27.4934 42.4494C27.407 42.7523 27.2242 43.0187 26.9728 43.2083C26.7213 43.3979 26.4149 43.5003 26.1 43.5001C25.9649 43.5006 25.8304 43.4815 25.7007 43.4435C25.5175 43.3913 25.3465 43.3035 25.1973 43.1851C25.0482 43.0667 24.9239 42.92 24.8315 42.7535C24.7392 42.5869 24.6806 42.4038 24.6592 42.2146C24.6377 42.0253 24.6539 41.8337 24.7066 41.6508ZM13.4748 30.8749L19.2748 25.0749C19.5479 24.8086 19.9148 24.6607 20.2962 24.6631C20.6776 24.6655 21.0426 24.8181 21.3123 25.0878C21.582 25.3575 21.7346 25.7225 21.737 26.1039C21.7394 26.4853 21.5915 26.8522 21.3252 27.1253L16.5504 31.9001L21.3252 36.6749C21.4627 36.8089 21.5721 36.9688 21.6473 37.1455C21.7224 37.3221 21.7617 37.5119 21.763 37.7039C21.7642 37.8959 21.7273 38.0861 21.6544 38.2637C21.5815 38.4413 21.474 38.6027 21.3383 38.7384C21.2026 38.8741 21.0412 38.9816 20.8636 39.0545C20.6861 39.1274 20.4958 39.1643 20.3038 39.1631C20.1118 39.1618 19.922 39.1225 19.7454 39.0474C19.5688 38.9722 19.4088 38.8628 19.2748 38.7253L13.4748 32.9253C13.2029 32.6534 13.0502 32.2846 13.0502 31.9001C13.0502 31.5156 13.2029 31.1468 13.4748 30.8749Z" fill="#DB5422"/>
</svg>
