<svg width="58" height="50" viewBox="0 0 58 50" fill="none" xmlns="http://www.w3.org/2000/svg">
<path d="M53.65 0H4.35C3.19631 0 2.08987 0.458302 1.27409 1.27409C0.458302 2.08987 0 3.19631 0 4.35V8.7H58V4.35C58 3.19631 57.5417 2.08987 56.7259 1.27409C55.9101 0.458302 54.8037 0 53.65 0ZM10.15 5.8H7.25C6.86544 5.8 6.49662 5.64723 6.2247 5.37531C5.95277 5.10338 5.8 4.73456 5.8 4.35C5.8 3.96544 5.95277 3.59662 6.2247 3.3247C6.49662 3.05277 6.86544 2.9 7.25 2.9H10.15C10.5346 2.9 10.9034 3.05277 11.1753 3.3247C11.4472 3.59662 11.6 3.96544 11.6 4.35C11.6 4.73456 11.4472 5.10338 11.1753 5.37531C10.9034 5.64723 10.5346 5.8 10.15 5.8ZM18.85 5.8H15.95C15.5654 5.8 15.1966 5.64723 14.9247 5.37531C14.6528 5.10338 14.5 4.73456 14.5 4.35C14.5 3.96544 14.6528 3.59662 14.9247 3.3247C15.1966 3.05277 15.5654 2.9 15.95 2.9H18.85C19.2346 2.9 19.6034 3.05277 19.8753 3.3247C20.1472 3.59662 20.3 3.96544 20.3 4.35C20.3 4.73456 20.1472 5.10338 19.8753 5.37531C19.6034 5.64723 19.2346 5.8 18.85 5.8Z" fill="#00B140"/>
<path d="M0 44.9501C0 46.1038 0.458302 47.2102 1.27409 48.026C2.08987 48.8418 3.19631 49.3001 4.35 49.3001H53.65C54.8037 49.3001 55.9101 48.8418 56.7259 48.026C57.5417 47.2102 58 46.1038 58 44.9501V11.6001H0V44.9501ZM39.15 23.2001H47.85C48.2346 23.2001 48.6034 23.3529 48.8753 23.6248C49.1472 23.8967 49.3 24.2655 49.3 24.6501C49.3 25.0347 49.1472 25.4035 48.8753 25.6754C48.6034 25.9473 48.2346 26.1001 47.85 26.1001H39.15C38.7654 26.1001 38.3966 25.9473 38.1247 25.6754C37.8528 25.4035 37.7 25.0347 37.7 24.6501C37.7 24.2655 37.8528 23.8967 38.1247 23.6248C38.3966 23.3529 38.7654 23.2001 39.15 23.2001ZM39.15 29.0001H47.85C48.2346 29.0001 48.6034 29.1529 48.8753 29.4248C49.1472 29.6967 49.3 30.0655 49.3 30.4501C49.3 30.8347 49.1472 31.2035 48.8753 31.4754C48.6034 31.7473 48.2346 31.9001 47.85 31.9001H39.15C38.7654 31.9001 38.3966 31.7473 38.1247 31.4754C37.8528 31.2035 37.7 30.8347 37.7 30.4501C37.7 30.0655 37.8528 29.6967 38.1247 29.4248C38.3966 29.1529 38.7654 29.0001 39.15 29.0001ZM39.15 34.8001H47.85C48.2346 34.8001 48.6034 34.9529 48.8753 35.2248C49.1472 35.4967 49.3 35.8655 49.3 36.2501C49.3 36.6347 49.1472 37.0035 48.8753 37.2754C48.6034 37.5473 48.2346 37.7001 47.85 37.7001H39.15C38.7654 37.7001 38.3966 37.5473 38.1247 37.2754C37.8528 37.0035 37.7 36.6347 37.7 36.2501C37.7 35.8655 37.8528 35.4967 38.1247 35.2248C38.3966 34.9529 38.7654 34.8001 39.15 34.8001ZM8.7 24.6501C8.69989 24.4596 8.73731 24.271 8.81014 24.0951C8.88297 23.9191 8.98977 23.7592 9.12444 23.6245C9.25911 23.4899 9.419 23.3831 9.59497 23.3102C9.77095 23.2374 9.95955 23.2 10.15 23.2001H18.85C19.075 23.2008 19.2969 23.2531 19.4985 23.353L29.4871 28.3488C30.2141 28.7084 30.8256 29.2648 31.2521 29.9547C31.6786 30.6445 31.9031 31.4402 31.9 32.2513V33.3501C31.8987 34.5034 31.44 35.6091 30.6245 36.4246C29.809 37.2401 28.7033 37.6988 27.55 37.7001H11.6C10.8311 37.6993 10.0939 37.3935 9.55024 36.8499C9.00655 36.3062 8.70077 35.569 8.7 34.8001V24.6501Z" fill="#00B140"/>
<path d="M28.9996 33.3501V32.2513C29.0005 31.9795 28.9252 31.7128 28.7823 31.4816C28.6394 31.2504 28.4346 31.0638 28.1911 30.9431H28.1896L26.8681 30.282L25.4029 31.7472C25.1298 32.0134 24.7628 32.1614 24.3815 32.1589C24.0001 32.1565 23.635 32.004 23.3653 31.7343C23.0957 31.4646 22.9431 31.0995 22.9407 30.7182C22.9383 30.3368 23.0862 29.9698 23.3524 29.6968L24.1349 28.9148L23.0022 28.3482L21.3251 30.0253C21.052 30.2916 20.6851 30.4395 20.3037 30.4371C19.9223 30.4347 19.5573 30.2821 19.2876 30.0124C19.0179 29.7427 18.8653 29.3777 18.8629 28.9963C18.8605 28.6149 19.0084 28.2479 19.2747 27.9749L20.2686 26.981L18.5069 26.1001H11.5996V34.8001H27.5496C27.934 34.7996 28.3025 34.6467 28.5744 34.3749C28.8462 34.103 28.9991 33.7345 28.9996 33.3501Z" fill="#00B140"/>
</svg>
