<svg xmlns="http://www.w3.org/2000/svg" width="98" height="33.681" viewBox="0 0 98 33.681"><defs><style>.a{fill:#00b140;}</style></defs><g transform="translate(0 0.05)"><g transform="translate(0 5.611)"><path class="a" d="M10.873,35.073,7.174,34c-1.275-.375-1.9-.725-1.9-1.65,0-1,.85-1.65,2.874-1.65a14.163,14.163,0,0,1,6.274,1.675l1.425-4.424A17.892,17.892,0,0,0,8.373,26.3c-5.6,0-8.3,2.824-8.3,6.374,0,2.924,1.7,4.824,5.274,5.774l3.4.925c1.675.425,2.35.975,2.35,1.9,0,1.325-1.275,1.975-3.324,1.975A12.573,12.573,0,0,1,1.2,41.172L0,45.871a18.341,18.341,0,0,0,7.649,1.8c5.2,0,8.7-2.749,8.7-6.749C16.347,38.048,14.7,36.173,10.873,35.073Z" transform="translate(0 -25.375)"/><path class="a" d="M79.073,57.748c-2.35,0-3.674-1.2-3.974-3.049H85.347a14.216,14.216,0,0,0,.325-3.049C85.672,47.974,83.347,45,78.5,45A8.157,8.157,0,0,0,70,53.473c0,4.724,2.749,8.373,8.773,8.373a10.716,10.716,0,0,0,6.774-2.175l-1.9-3.424A8.871,8.871,0,0,1,79.073,57.748Zm-.6-8.873c1.9,0,2.774.925,2.774,2.2a1.892,1.892,0,0,1-.025.375H75.2A3.1,3.1,0,0,1,78.473,48.874Z" transform="translate(-52.503 -39.401)"/><path class="a" d="M146.624,41.047a3.728,3.728,0,0,1-1.6.425c-.8,0-1.1-.6-1.1-1.55V23.8H138.8V41.222c0,3.374,1.625,4.574,4.149,4.574a12.032,12.032,0,0,0,3.874-.675Z" transform="translate(-104.107 -23.5)"/><path class="a" d="M184.624,41.047a3.728,3.728,0,0,1-1.6.425c-.8,0-1.1-.6-1.1-1.55V23.8H176.8V41.222c0,3.374,1.625,4.574,4.149,4.574a12.032,12.032,0,0,0,3.874-.675Z" transform="translate(-132.608 -23.5)"/><path class="a" d="M232.57,29.274l-6.1,15.1c-1.675,4.324-3.4,6.249-7.174,6.249a7.1,7.1,0,0,1-3.674-1.075l.725-3.9a6.349,6.349,0,0,0,2.849.825c1.275,0,1.825-.65,2.325-1.775l.275-.65-4.949-10.8h-2.774V44.571h-5.124V33.248H206.2V29.274h2.749V28.4c0-3.124,1.75-5.8,5.724-5.8a12.392,12.392,0,0,1,4.149.775l-.925,4.074a5.7,5.7,0,0,0-2.375-.675c-1.05,0-1.475.65-1.475,1.65v.85H220.6l3.424,9.7,3.424-9.7Z" transform="translate(-154.66 -22.6)"/></g><path class="a" d="M342.591.512a51.783,51.783,0,0,0-15.222,0,53.55,53.55,0,0,0,0,15.222,55.4,55.4,0,0,0,7.624.7,55.4,55.4,0,0,0,7.6-.7A53.55,53.55,0,0,0,342.591.512Zm-7.874,12.6a8.48,8.48,0,0,1-3.524-.825l.55-2.15a5.709,5.709,0,0,0,3.024.95c.95,0,1.525-.3,1.525-.9,0-.425-.3-.675-1.075-.875l-1.55-.425c-1.65-.45-2.425-1.3-2.425-2.649,0-1.625,1.25-2.924,3.824-2.924a8.408,8.408,0,0,1,3.449.75l-.65,2.05a6.385,6.385,0,0,0-2.874-.775c-.925,0-1.325.3-1.325.75,0,.425.275.6.875.75l1.7.5c1.75.5,2.525,1.35,2.525,2.674C338.716,11.86,337.117,13.11,334.717,13.11Z" transform="translate(-245.134)"/></g></svg>