<svg width="220" height="170" xmlns="http://www.w3.org/2000/svg"><defs><linearGradient x1=".11423114%" y1="20.5403915%" x2="79.6483286%" y2="65.2153175%" id="a"><stop stop-color="#FFF" stop-opacity="0" offset="19%"/><stop stop-color="#FFF" offset="90%"/></linearGradient><linearGradient x1="94.1021238%" y1="36.8094509%" x2="2.8886903%" y2="71.9068343%" id="b"><stop stop-color="#FFFFF4" offset="0%"/><stop stop-color="#FEFEF4" offset="0%"/><stop stop-color="#BCD4DC" stop-opacity=".74" offset="17%"/><stop stop-color="#83AFC7" stop-opacity=".51" offset="33%"/><stop stop-color="#5491B6" stop-opacity=".33" offset="49%"/><stop stop-color="#2F79A8" stop-opacity=".19" offset="64%"/><stop stop-color="#15699F" stop-opacity=".08" offset="77%"/><stop stop-color="#065F99" stop-opacity=".02" offset="90%"/><stop stop-color="#005B97" stop-opacity="0" offset="99%"/></linearGradient></defs><g fill="none" fill-rule="evenodd"><g><ellipse fill="#55626F" fill-rule="nonzero" opacity=".1" cx="27.1272507" cy="144.598362" rx="22.3142849" ry="4.4359182"/><path d="M42.3566379 62.5338752h6.8783671c1.0999272-.0017941 2.0123369-.8515491 2.0922448-1.9485714l.0718368-.7812244-9.0424487 2.7297958z" fill="#EDBBC4" fill-rule="nonzero"/><path d="M37.4627606 64.5183649s-1.4187755 0-1.7330612-.8979591c-.3142857-.8979592.1706122-3.4032652.1706122-3.4032652s-.0987755-1.5893877.2155102-1.6612245c.2738769-.0501465.5562162-.0253255.8171429.0718368 0 0-.0718368-.9967347.3142857-1.032653.7603634.2400266 1.4874511.5749093 2.1640815.9967346l1.4546938-.2155102c.5297959-.0718367 2.7657142 3.187755 2.7657142 3.187755a23.0326502 23.0326502 0 01-1.0595918 2.9812244c-.2514285.2514285-5.1093875 0-5.1093875 0v-.0269388z" fill="#EE9E94" fill-rule="nonzero"/><path d="M37.4627606 64.5183649s-1.4187755 0-1.7330612-.8979591c-.3142857-.8979592.1706122-3.4032652.1706122-3.4032652s-.0987755-1.5893877.2155102-1.6612245c.2738769-.0501465.5562162-.0253255.8171429.0718368 0 0-.0718368-.9967347.3142857-1.032653.7603634.2400266 1.4874511.5749093 2.1640815.9967346l1.4546938-.2155102c.5297959-.0718367 2.7657142 3.187755 2.7657142 3.187755a23.0326502 23.0326502 0 01-1.0595918 2.9812244c-.2514285.2514285-5.1093875 0-5.1093875 0v-.0269388z" stroke="#EE9E94" stroke-width=".5" stroke-linecap="round" stroke-linejoin="round"/><path d="M43.9909236 61.6448956c3.5020407-2.8016325.0628571-6.0253059-1.6342857-8.5036731-2.4783672-3.6906121-3.0530611-7.3722446-3.7265304-11.673469-.2717336-1.5597246-1.1856192-2.9337954-2.5189947-3.7874289-1.3333754-.8536334-2.9638127-1.1084505-4.4940663-.7023668-11.2424486 3.0081631 1.6612244 20.024489 6.133061 24.0293868 1.8048979 1.5983673 4.0408162 2.3795918 6.2408161.637551z" fill="#55626F" fill-rule="nonzero"/><path d="M35.1550055 73.1657115c-5.4865304 1.1404081-16.0914279 4.5436733-15.9118361 4.4359182.5297959 9.6799996 4.8938774 18.2555095 5.2081631 29.8481623.2155102 8.503673-1.7959183 11.906938 1.2391836 34.490611 1.5265306.781224 10.2457139-47.0440801 9.4644894-68.7746915z" fill="#0965A0" fill-rule="nonzero"/><path d="M9.06929225 71.8906095c5.38775485 1.3469387 15.91183615 5.1453059 15.77714225 5.0016325-.8530612 9.6799996-5.5673467 18.0759177-6.285714 29.632652-.5297959 8.476734 1.3469387 13.613061-2.4783673 36.088978-1.5983673.745306-8.58448946-49.0285694-6.98612218-70.7232625h-.02693877z" fill="#1F72B8" fill-rule="nonzero"/><path d="M29.3811282 32.048162c-.4646204-.3852205-.880729-.8254513-1.2391836-1.3110203-3.8410246 2.0652598-8.449883 2.1189292-12.3379587.1436735a12.37389174 12.37389174 0 01-1.275102 1.382857c4.7601723 2.0230194 10.1527729 1.9447712 14.8522443-.2155102z" fill="#4C5763" fill-rule="nonzero"/><path d="M39.0611278 42.4375494c-.2528088-1.2619486-.7076367-2.4748229-1.3469387-3.5918366-1.1621317-1.9517578-2.8276001-3.5551975-4.8220406-4.6424488a24.24489417 24.24489417 0 01-3.5918366-2.1999999c-4.700241 2.1679143-10.1009569 2.2332192-14.8522443.1795918a28.42041323 28.42041323 0 01-3.6906121 2.6938775c-1.63110106.8829805-3.09331596 2.0472806-4.31918356 3.4391835-2.83755091 3.5379591-1.45469382 9.4285711-.21551019 13.3257138.38612243 1.2391836.89795915 2.4783672 1.27510199 3.7624488.67346936 1.912653 1.94857135 7.0848977 2.02040808 7.7224487a21.18285593 21.18285593 0 01.14367347 2.1640816c0 2.9812243-1.49061219 12.9395913-1.56244892 15.9208157 0 0 3.87020393 1.7959183 13.68489743 1.7330611 4.8563556.0076889 9.7056397-.3706454 14.5020403-1.1314285-.5028571-3.2595917-1.8767346-13.6130607-1.8767346-16.6661218a15.71427616 15.71427616 0 01.2424489-2.9093876 17.510204 17.510204 0 01.4938776-2.2628571c.4669387-1.7420407 1.0685713-3.4751019 1.7061223-5.2171427.637551-1.7420407 1.1673469-3.2595917 1.6342857-4.8848977.7653118-2.3917145.9469723-4.9318828.5297959-7.408163l.0448979-.0269388z" fill="#4C5763" fill-rule="nonzero"/><path fill="#3A424B" fill-rule="nonzero" d="M16.0554144 30.1355091l2.792653 1.6612244 3.1248978 6.7346936-3.5918366-4.857959-1.0236734 2.1281632-2.8734693-3.5918366zM27.890516 30.1355091l-2.8375509 1.6612244-3.0799999 6.7346936 3.5469387-4.857959 1.0236734 2.1281632 2.8734693-3.5918366z"/><path d="M11.2692922 37.6155088c-1.1431456-.6791886-2.51092973-.8715362-3.79705868-.5339695-1.28612896.3375666-2.38314551 1.1768435-3.04539007 2.3298878C2.36905662 42.8380742.99668711 46.6319134.38602727 50.5820389c-.43102039 3.0081631-1.34693872 9.7428568 3.00816315 10.2457139 4.18448964.5028571 3.87020394-4.2563264 4.57061208-6.9502038.8538061-3.3055413 2.4439236-6.3752662 4.6514284-8.9795915.8913361-1.1056474 1.2552712-2.5454661.996361-3.9418549-.2589101-1.3963887-1.1148338-2.6100285-2.3432997-3.3226346v-.0179592z" fill="#55626F" fill-rule="nonzero"/><path d="M25.977863 58.5648957c1.2391837-.395102 2.4424489-.8979591 3.6906121-1.3110203.7750784-.3309381 1.2157777-1.1563155 1.0595918-1.9844897-.4938775-2.3077551-3.6546937-.9967347-5.1363263-.7093878.4299785 1.288575.5619996 2.6579108.3861224 4.0048978z" fill="#F6A399" fill-rule="nonzero"/><path d="M24.06521 59.1665284c.637551-.1795919 1.275102-.3861225 1.912653-.6016327.1802525-1.3495267.0355577-2.7225885-.4220408-4.0048978l-1.5265305.242449c.7029255 1.3667932.7162515 2.9859034.0359183 4.3640815z" fill="#FFF" fill-rule="nonzero"/><path d="M1.15827214 58.6008141c.0779713 2.0420636 1.78238118 3.6424485 3.82530598 3.5918366 6.48731018-.1714738 12.92393838-1.1949339 19.14448908-3.0440815.6526462-1.3962541.6026452-3.0196197-.1346939-4.3730611-1.7420407.2514286-3.5110203.4310204-5.2799998.5746939-3.6146176.2365392-7.2425403.1764742-10.84734651-.1795918-1.49061219-.1436735-3.16081621-.7093878-4.57959166 0-1.33544065.6104922-2.1742898 1.9625613-2.12816319 3.4302039zM28.1419446 31.4285702l-.1795918-.2873469c-.8716806-1.5225563-1.218743-3.2894194-.9877551-5.0285712.3502041-3.8342856.7004081-9.8236731-4.7232651-10.003265-5.5942855-.1436734-5.3877549 6.133061-4.9926529 10.003265.2610097 1.9185732-.2635189 3.8612715-1.4546938 5.3877549a23.27510323 23.27510323 0 003.187755 1.2032652l1.0236734 2.2538775.2783673.6016326 1.6342857 3.5918366 1.6791836-3.5559182.2873469-.6016326 1.0955102-2.3077551c1.1053546-.2660719 2.1667917-.6894371 3.1518366-1.2571428z" fill="#EE9E94" fill-rule="nonzero"/><path d="M15.5256185 31.2310192a1.25714292 1.25714292 0 00.1795919-.2873469c.917435-1.6112616 1.28913-3.4760369 1.0595918-5.3159182-.3412245-4.0767345-.7093878-10.3624486 4.9926528-10.5240812 5.9175508-.1795918 5.6751019 6.4473467 5.2799998 10.5599996-.2656293 2.0417836.2827057 4.1061037 1.5265306 5.7469386-4.1171333 2.0622175-8.9795952 1.9952414-13.0383669-.1795919z" fill="#EE9E94" fill-rule="nonzero"/><path d="M17.6448021 17.2677544c.198658-.405236.6176059-.6551965 1.0685714-.6375509.8979592 0 6.6269385.3142857 6.9142855-.0718368.9518367 1.2391836 1.5893877 6.2318365 1.6612244 6.2318365.2873469-.0628571.3591837-2.6938774.3591837-2.9363264 0-1.3469387.3861224-3.8971427-2.0204081-5.49551-1.4906122-.9967347-4.5436733-1.0685714-6.2857141-.5297959-1.2308624.430006-2.2140111 1.3738288-2.6938774 2.5861224-.4669388 1.2751019-.4669388 2.2987754-.287347 4.857959a5.63920138 5.63920138 0 00.0718368.8081632 2.86448713 2.86448713 0 00.1077551.5387755c.1885714.987755.395102-4.220408 1.1044897-5.3518366z" fill="#4D5763" fill-rule="nonzero"/><path d="M16.9713328 16.728979c0 .1077551.1795918.6734693 2.1640815 1.3469387 1.185206.4200471 2.4331746.6356329 3.6906121.637551a2.97224472 2.97224472 0 01-.5746938-.4220408c.7917964.2538694 1.6200839.3752302 2.4514284.3591836 1.0236735-.1077551 1.7959183-.6734693 1.6253061-.6734693a3.99591672 3.99591672 0 01-.7004081-.2514286c.7530013-.3636121 1.4367365-.8559014 2.0204081-1.4546938.7363265-.8530612.987755-1.670204.8979591-1.5983673-.0897959.0718367-.7093877.395102-.637551.2873469a6.95917962 6.95917962 0 00.1795918-1.3828571 5.25304217 5.25304217 0 01-.7093877.4220408c-.1436735 0 .1795918-1.0236734.1795918-1.0236734-.7840419.1474246-1.5835078.1956943-2.3795917.1436735a13.32571276 13.32571276 0 00-2.6220407-.4310204c-.7014956-.0600454-1.4070911.0508779-2.0563265.3232653l.2155102-.4310204c-.7910642.2055539-1.5540102.5071136-2.2718366.8979591-.3438054.3163046-.6455907.6754292-.8979592 1.0685714a3.31346807 3.31346807 0 00-.8081632-.1436734c-.1857454-.0092707-.3708838.027757-.5387755.1077551l.8171428.2783673c-.2330308.0789794-.4492567.2007968-.637551.3591837-.2783673.2424489-.4938775.5297959-.3861224.4579591a4.0677519 4.0677519 0 01.7812245-.1436734l.197551 1.2661224z" fill="#4D5763" fill-rule="nonzero"/><path d="M17.7525572 20.5273462c.0214635.5395692-.099308 1.075299-.350204 1.5534693-.3338715-.1271612-.6391139-.3194639-.8979592-.5657143-.2632495-.245198-.4582021-.5546466-.5657143-.8979591-.0898195-.3412898-.0276059-.7047487.1706123-.9967347.2231242-.2955625.6142499-.4088792.9608163-.2783673.2245281.0912325.402645.2693494.4938775.4938775.1340989.1978135.1973887.4351504.1795918.6734694l.0089796.0179592z" fill="#EE9E94" fill-rule="nonzero"/><path d="M25.2325569 21.0930604c0 .2514286.3951021.287347.3951021 0-.0124822-.5534135-.4358425-1.0105607-.9866722-1.0654151-.5508297-.0548544-1.0560312.3098219-1.1774094.8499049 0 .2514286.3502041.287347.3861225 0 .1077551-.7093877 1.4187754-.5657142 1.382857.2155102zM21.8113326 22.7542849c-.1795918-.1706123-.4579592.107755-.2873469.2873469.5962042.5667133 1.5319589.5667133 2.1281631 0 .1795919-.1795919-.0718367-.4220408-.2783673-.2873469-.4390124.4128185-1.1234365.4128185-1.5624489 0z" fill="#454C57" fill-rule="nonzero"/><path d="M26.1215365 20.4914278c-.0205318.5423547.1001418 1.0807446.3502041 1.5624489.3321627-.1346198.6365926-.329455.8979591-.5746938.2632495-.2451981.4582021-.5546466.5657143-.8979592.0922384-.3423825.0263473-.7080778-.1795918-.9967346-.2182715-.2967188-.6080821-.41072-.9518367-.2783674-.2245282.0912326-.402645.2693494-.4938776.4938775-.1340988.1978135-.1973887.4351504-.1795918.6734694l-.0089796.0179592z" fill="#EE9E94" fill-rule="nonzero"/><path d="M21.2994959 20.7697951c.0718367.2514286.4579591.1436735.350204-.0987755-.1880306-.5376706-.7593657-.8388657-1.3092216-.6901922-.5498558.1486734-.8915617.6967423-.7830232 1.2559065 0 .242449.4310204.1436735.3591837-.1077551-.1077551-.7453061 1.1314285-1.0955102 1.3828571-.3591837z" fill="#454C57" fill-rule="nonzero"/><path fill="#D2D5DC" fill-rule="nonzero" d="M17.4023532 35.8016313l1.4457142-4.0048978-2.792653-1.6612244-1.5265305 2.0922448zM26.5435773 35.8016313l-1.4906122-4.0048978 2.8375509-1.6612244 1.670204 1.9844897z"/><path fill="#55626F" fill-rule="nonzero" d="M23.4635774 145.343668l-2.3795917.323265-6.6628569-2.693877-.1436735-5.459592h2.6938775l1.1763265 3.466122 3.5918366 2.298776z"/><path fill="url(#a)" fill-rule="nonzero" d="M17.824394 33.7093865l9.6440812-14.421224 13.8914281 19.7551013 13.8644892 19.7551013-23.5355093-5.3428569-23.47265214-5.2799998z"/><path d="M57.1729639 61.9591813H31.1321486l-11.5567354.2783674c0 .1588506.0651437.3107448.180819.4196156.1156752.1088709.271254.1650067.4297943.1550782h38.7828557v-.8530612h-1.7959183z" fill="#E5E5E5" fill-rule="nonzero"/><path d="M59.0137802 44.0628555H35.8643933c-1.1836428.0364469-2.1692041.9196615-2.3346938 2.0922448l-1.7061224 14.1069382c-.1023312.5401833.0484054 1.0974797.4090796 1.51243.3606742.4149504.8915456.6418342 1.4407162.6157332h23.1583665c1.1970195-.0354397 2.1888518-.939533 2.3346938-2.1281632l1.7061224-14.1069382c.0903887-.536302-.0671215-1.0846746-.4283379-1.4912611-.3612163-.4065866-.8872227-.6275828-1.4304375-.6009837z" fill="#B2B2B2" fill-rule="nonzero"/><ellipse fill="#E5E5E5" fill-rule="nonzero" transform="rotate(-43.59 46.797429 53.214789)" cx="46.7974289" cy="53.2147892" rx="2.02040809" ry="1.80489789"/><path d="M32.0390873 142.479178c-2.195717-1.339711-4.4820636-2.524891-6.8424487-3.546938l-.9518367 2.864489c1.2032652.709388 10.1738771 4.489796 10.7755098 3.654694-.8672322-1.110019-1.8685944-2.108365-2.9812244-2.972245z" fill="#55626F" fill-rule="nonzero"/><path d="M51.4439845 0c-7.6146936 0-13.738775 4.31918351-13.738775 9.66204045 0 2.63102035 1.517551 5.01959165 3.9510203 6.78857115-.5671703 1.4273839-1.2835254 2.7908665-2.1371428 4.067755-.2415372.3321297-.2500561.7797217-.0213318 1.1208018s.6460469.5031078 1.0450052.4057287c2.4211284-.7083833 4.7327789-1.7478706 6.8693875-3.0889795 1.3246109.2858848 2.6767738.4244137 4.0318366.4130613 7.605714 0 13.7297954-4.3191836 13.7297954-9.66204049C65.1737799 4.36408147 59.0048006 0 51.4439845 0z" fill="#3AB64A" fill-rule="nonzero"/><text fill="#FFF" font-family="ProximaNova-Black, Proxima Nova" font-size="10.4073465" font-weight="700"><tspan x="44.9427603" y="12.9542856">Hi!</tspan></text></g><g transform="translate(67.227114 83.51732)" fill-rule="nonzero"><ellipse fill="#55626F" opacity=".1" cx="35.6220395" cy="76.3852592" rx="35.6220395" ry="9.21306088"/><path d="M72.4563238 25.8301591c1.6163265-.2334694 3.2057141-.5477551 4.8399998-.8979592 1.0010674-.1720672 1.7126794-1.0693171 1.6522448-2.0832652-.2604081-2.6938775-4.4359182-1.7959183-6.3485712-1.7061224.3388393 1.5383758.2894641 3.1368975-.1436734 4.6514284" fill="#F5A297"/><path d="M37.0767333 26.2791386c-1.7164669-.4700572-3.3450694-1.2161209-4.8220406-2.2089795-.1150145-.0803504-.2472568-.1326322-.3861225-.152653-.1943088.0096343-.380233.0821132-.5297959.2065306-1.3918367.8979591-3.385306 2.0114285-3.5918366 3.8073468-.1122493.5933775-.1122493 1.2025407 0 1.7959183.1569181.4921052.3804919.9604018.6644898 1.3918367.6844683 1.1989756 1.1925491 2.4903476 1.5085714 3.8342855.053833.6133018.3514282 1.1793795.8261224 1.5714285.4049128.1737229.8544796.2145926 1.2840816.1167347 6.1621117-.6523204 12.2479221-1.8911316 18.1746932-3.6995917 4.1126529-1.3199999 8.1804078-2.8285713 12.3199995-4.0857141.9877551-.2963265 10.1469384-2.0922448 10.1469384-3.0889795.3487574-1.5132763.559148-3.0551384.6285714-4.6065304L43.52408 26.0097509c-1.7279971.3519562-3.490077.5085855-5.253061.4669387a7.87508612 7.87508612 0 01-1.1942857-.197551z" fill="#0965A0"/><path d="M29.2465295 17.3534247c-.1526531 2.5412244 1.6073469 4.7322447.3502041 7.4440813-1.9755102 4.265306-5.8726529 3.0799999-8.8179589 2.9542856l-3.8342855-.1885714c-3.0081632-.1616326-6.5640814 0-7.61469364-4.2653059-.70938772-2.9183673.89795914-4.3820407 1.06857144-6.7077549l.2424489-6.5191834c.682449-8.64734663 3.9959182-9.87755066 10.1020405-9.50040782 7.2555099-.58367344 8.9795915 3.16081621 9.033469 10.49714242l-.5297959 6.2857141z" fill="#CB3E0C"/><path d="M9.44653025 66.5885249c1.85877545 0 3.69959175-.1257143 5.59428555-.2334694 1.2079595-.0985348 2.1721764-1.0476267 2.2897958-2.2538775.2963265-3.3583672-4.5706121-2.9093876-6.7167345-3.1518366.0363562 1.9432669-.3625003 3.8700509-1.16734685 5.6391835" fill="#F5A297"/><path d="M28.2048969 21.2685266c-1.5194457-1.9562176-2.1862837-4.4422932-1.8497959-6.8963263.484898-4.81306103.6555102-12.61632604-6.5820405-12.35591789-6.9591834.25142857-6.4204079 7.74040787-5.9085712 12.49959139.2754137 2.1729755-.1559244 4.3768928-1.2302041 6.285714-.0808163.1346939-.1257142.2244898-.2155102.3502041 4.999587 2.5603757 10.9297026 2.5402963 15.9118362-.0538776" fill="#EC9C92"/><path d="M22.6914277 13.6628126c-.5571394.4947159-1.3880476.5211539-1.9755101.0628571-.2783674-.1706122-.5836735.1346939-.3591837.3502041.783655.6700228 1.9470453.6389991 2.6938775-.0718367.2244898-.2244898-.1346939-.5657143-.3591837-.3412245M20.024489 9.21791479c.0808164-.28734692.5657143-.25142856.4938776.08979592-.3502041 1.58040809-2.9183673 1.31999999-2.8195918-.30530611 0-.3232653.5208163-.24244897.4938776.08081632-.0538776.89795915 1.6522448 1.13142848 1.7959183.13469387M24.9902031 9.06526174c0-.3142857.5028572-.3232653.5118367 0 0 1.61632646-2.6938774 1.74204076-2.8375509.12571428-.0538775-.3142857.4579592-.32326529.5118368 0 .0987755.98775508 1.7959183.89795918 1.7959183-.1077551" fill="#454C57"/><path d="M23.9844889 3.29138441c-.6734694 3.24163253-7.7493875 1.93959176-10.2187751 5.78285692-2.4783673-3.9061223 1.7959183-11.53877507 8.6742853-8.28816295l1.5444898 2.50530603z" fill="#CB3E0C"/><path d="M12.1583669 20.666894c.4938775-.3681633.5208163-.7722449.8979591-1.2481633 4.5132213 1.9167525 9.6116762 1.9167525 14.1248975 0 .4130612.4759184.3412244 1.0416326.8261224 1.4457143-5.1222225 1.916064-10.7761064 1.8455907-15.848979-.197551z" fill="#0965A0"/><path d="M1.87673462 30.4995466c.27604776-1.2069628.76237839-2.3559189 1.43673464-3.3942855 1.29379885-1.8954617 3.07001729-3.4112921 5.14530593-4.3910203a27.11837157 27.11837157 0 003.78040801-2.0832652c5.0766283 2.0481407 10.7384395 2.1090548 15.8579586.1706122a29.34528515 29.34528515 0 003.9330611 2.5142856c1.6791836.8979592 1.6073468 1.7959183 2.7746937 3.3493877 1.0538609 1.5013899 1.6496295 3.2762188 1.715102 5.1093875.1346939 2.9004081-.7991836 5.737959-1.867755 8.440816-1.2481632 3.1697958-.8979592 6.4653059-1.3020408 9.8775507a18.74936859 18.74936859 0 00-.152653 2.0473468c0 2.8195918 1.5893877 12.2481628 1.670204 15.0677546 0 0-4.1306121 1.7510203-14.6097954 1.6432652a109.70366232 109.70366232 0 01-15.47183613-1.0685714c.5297959-3.0889794 2.01142849-12.8946934 2.01142849-15.7771422-.02819535-1.6643072-.29738634-3.3157486-.79918364-4.902857a52.15346594 52.15346594 0 00-1.7959183-4.9387753c-.64653059-1.5444897-1.24816322-3.0889795-1.74204075-4.6334692-.8297764-2.2471085-1.03156188-4.6778475-.58367345-7.0310202z" fill="#1F72B8"/><path d="M32.9191824 65.1697494s10.4971425-28.3485703 15.8310198-32.048162c5.3338774-3.6995917 4.1934693 29.2285703 2.7657142 35.6579578l-1.427755 6.4204079s-6.4832651-6.6808161-11.826122-8.3599997l-5.342857-1.670204z" fill="#B3B3B3"/><path d="M51.3722429 68.1509738c-1.7771891-.8669443-3.7168753-1.3503362-5.693061-1.4187755 0 0-8.4767343-2.9363264-9.4914282-4.8759182-1.0146938-1.9395917-14.7893872-.987755-14.7893872-.987755L4.94775491 62.7632189l-.56571426 2.7746938c-.01548878 1.9869261.31260694 3.9615763.96979588 5.8367344 1.03265302 2.5232652 8.39591807 4.3999999 12.84081587 5.1273468 4.4448978.7273469 31.9583661.8979591 31.9583661.8979591l1.3110204-.3681632c1.230204-.3502041 3.4930611-6.2857141 3.7893876-7.1028569l-3.8791836-1.7779591z" fill="#CCC"/><path d="M48.3730594 32.9779139c3.8612243-3.4032652 12.4906118 1.9665305 12.7779587 6.8244895.2873469 4.857959-1.230204 13.0204077-2.9722448 21.7755094-1.2071356 5.6734115-3.0443827 11.1941884-5.4775508 16.4595912l-5.4775508-.0628571-1.6971428-33.9877538s-1.0146939-7.605714 2.8465305-11.0089792z" fill="#D9D9D9"/><path d="M57.7746917 78.4146469c1.9417658.6705508 3.7865383 1.5944468 5.4865304 2.747755-.4669388 1.427755-14.5828566.3591836-16.5583667-.1077551v-4.4359182s8.2163262.835102 11.0628567 1.7959183" fill="#B3B3B3"/><path d="M22.6285706 58.408117c1.7240815.2963265 3.4391835.484898 5.1991834.7004081 1.0746681.1471818 2.0880773-.5374496 2.352653-1.5893876.6285714-2.8465306-3.9240815-3.232653-5.890612-3.7893877-.1585566 1.672789-.7293204 3.2801834-1.6612244 4.6783672" fill="#F5A297"/><path d="M11.9608159 47.812199v-3.4032651l.0628571-6.8424488V34.60322c.0990981-1.3178026.0266557-2.6428949-.2155102-3.9420407-.4468481-1.7374816-1.4038958-3.301285-2.74775498-4.4897958-1.1399078-1.053506-2.80252444-1.3158378-4.21142841-.6644897-.67634874.3280708-1.30969274.7382365-1.88571422 1.2212244-.77573433.5234055-1.39611642 1.2461506-1.7959183 2.0922448-.26243729.9071896-.31464388 1.8622632-.15265305 2.792653.17959183 2.0204081.24244897 4.0587753.27836734 6.088163.03591836 2.0293877.16163264 3.9689795.25142856 5.9534692l.18857142 4.3461223.05387755 1.0595918v.5657142c.06623731 2.0644706 1.42608424 3.86321 3.39428558 4.4897958 3.81632639 1.1583673 7.63265281 2.2718366 11.43999961 3.4212243a45.50855303 45.50855303 0 005.9983671 1.7959183c.6629344.0917305 1.3364575.0735272 1.9934693-.0538775-.5208163-2.5861224-.2244898-3.3044897.242449-5.8187753" fill="#0965A0"/></g><g transform="translate(139.638541 10.06589)" fill-rule="nonzero"><ellipse fill="#55626F" opacity=".1" cx="23.7689787" cy="134.957506" rx="23.7689787" ry="5.54938754"/><ellipse fill="#55626F" opacity=".1" cx="54.0661204" cy="127.881588" rx="19.3151013" ry="4.99265287"/><path d="M16.5673463 45.0717953c-1.230204-.3861225-2.4155101-.8440816-3.6457141-1.2930612-.7813438-.3133422-1.2245081-1.1428548-1.0506122-1.9665306.4938775-2.2718366 3.5918366-.9787754 5.0824487-.6914285-.4285928 1.2702711-.5606746 2.6218054-.3861224 3.9510203z" fill="#996441"/><path d="M18.4620401 45.6644483c-.6285714-.1706122-1.2571428-.3861224-1.8857142-.592653-.1789514-1.3311082-.0373342-2.6857075.4130612-3.9510203.4938775.0628571 1.0146938.1706122 1.5085714.242449-.6932828 1.3469462-.7066101 2.9428879-.0359184 4.3012243z" fill="#FFF"/><path d="M41.1085699 45.1077136c-.06355 2.0306678-1.7491468 3.632185-3.7804081 3.5918366-6.4054255-.175705-12.7602081-1.1900551-18.90204-3.0171427-.6483149-1.3696813-.6083306-2.9657243.107755-4.3012243 1.715102.2424489 3.4661224.4220408 5.2171427.5567346 3.5694545.2396122 7.1526388.1825455 10.7126527-.1706122 1.4636734-.1436735 3.1159182-.7004082 4.4897957 0 1.3252192.5782175 2.1745423 1.8946683 2.155102 3.340408z" fill="#996441"/><path d="M36.2506109 46.8048564c-3.4661223-2.7657142-.0718368-5.9534691 1.6073468-8.4048976 2.4514285-3.5918366 3.0171428-7.2824487 3.6816326-11.475918.2542699-1.5502227 1.1506312-2.9212843 2.4686711-3.7760443 1.3180399-.85476 2.9354792-1.1139193 4.4545939-.7137514 11.0987751 2.9722448-1.6432652 19.7551013-6.0522447 23.7330603-1.7959183 1.5714285-3.9869386 2.3436734-6.1599997.6285714v.0089796z" fill="#B3B3B3"/><path d="M44.9697942 58.1550601c5.3877549 1.1224489 15.8848974 4.4897957 15.7142851 4.373061-.5208163 9.5542854-4.8310202 18.0310197-5.1453059 29.4799989-.2065306 8.395918 1.7510203 11.754285-1.2212244 34.059591-1.5085714.763265-10.1199997-46.4514273-9.3477548-67.9126509z" fill="#4C5763"/><path d="M70.7322422 56.8979173c-5.3877549 1.3289795-15.7232647 5.0734692-15.5795912 4.9297957.8440816 9.5542853 5.49551 17.8514279 6.2318365 29.2644887.5208163 8.3689792-1.3289796 13.4693873 2.4514284 35.6399983 1.5714286.736327 8.4677548-48.417957 6.8963263-69.8342827z" fill="#55626F"/><path d="M50.689794 17.5493473c.4540675-.3745459.8611116-.802696 1.2122448-1.275102 3.7920403 2.0353103 8.3401903 2.0856217 12.1763261.1346939a12.1134769 12.1134769 0 001.2571428 1.3648979c-4.6961929 1.9883708-10.0126682 1.9068798-14.6457137-.2244898z" fill="#D9D9D9"/><path d="M41.1175495 27.8040408c.2491077-1.2433268.6979097-2.4381104 1.3289795-3.537959 1.1460521-1.9264548 2.7900905-3.508454 4.7591835-4.5795917a24.41551108 24.41551108 0 003.5020407-2.1730611c4.6409413 2.1408088 9.974178 2.2028612 14.6636729.1706122a26.9387786 26.9387786 0 003.6457141 2.6310203c1.6110278.8707142 3.0551008 2.0198923 4.265306 3.3942856 2.8016325 3.5020407 1.4367346 9.3118364.2155102 13.1640811-.3861224 1.2212245-.8440816 2.4514285-1.2661224 3.7085713-.6644898 1.8857142-1.9216326 7.0040814-1.9934693 7.6326528a20.65305971 20.65305971 0 00-.1346939 2.1371428c0 2.9363264 1.4636734 12.7689791 1.5355102 15.7142851 0 0-3.8163264 1.7959183-13.5142852 1.715102-4.7933915.0065012-9.5796849-.3688355-14.3134689-1.122449.4938775-3.2146937 1.8587754-13.4693872 1.8587754-16.4506116.0066453-.9635948-.0775365-1.9256715-.2514285-2.8734693a15.74122844 15.74122844 0 00-.484898-2.2359183c-.4579591-1.7151019-1.0506122-3.4302039-1.6791836-5.1453059-.6285714-1.715102-1.1583673-3.2236733-1.6163264-4.8310202-.762773-2.3614631-.9414856-4.8726836-.5208163-7.3183671z" fill="#D9D9D9"/><path d="M68.5591811 23.0448573c1.1325475-.6680995 2.4856851-.8542039 3.7565446-.5166582 1.2708594.3375456 2.3533162 1.1705543 3.0050878 2.3125765 2.0306121 3.3827353 3.3846776 7.1277634 3.9869386 11.0269384.4220408 2.9722448 1.3289795 9.6261221-2.9722448 10.11102-4.1306121.4938775-3.8163264-4.2293876-4.4897957-6.8963263-.846379-3.2579855-2.4145909-6.2839285-4.5885713-8.8538772-.8838791-1.0894591-1.2484234-2.5103405-.9982221-3.8907618.2502014-1.3804212 1.0902427-2.5829715 2.3002629-3.2929114z" fill="#B3B3B3"/><path d="M64.3208139 16.7411841a1.55346785 1.55346785 0 01-.1706123-.2783674c-.9051892-1.592779-1.2735641-3.4346537-1.0506122-5.253061.3502041-3.9869386.6195919-11.07183629-5.0195916-11.20653016-5.8457141-.17959183-5.4865304 7.18367319-5.100408 11.24244856.2675821 2.0154047-.2713495 4.0549545-1.4995918 5.6751018 4.0558548 2.0272333 8.8432423 1.9602768 12.8408159-.1795918z" fill="#996441"/><path d="M62.1567323 6.1722049c-.0257289.53421794.0953896 1.06527578.3502041 1.53551014.3322152-.12635208.6370604-.31535611.8979592-.55673467.2613776-.24674251.4560008-.55566819.5657142-.89795915.0821641-.33984377.0169388-.69858305-.1795918-.98775507-.2170819-.29261028-.6016587-.406152-.9428571-.27836733-.2217417.10148501-.3955384.28493705-.484898.51183671-.1417238.19532475-.2143879.43227307-.2065306.67346937zM53.8955082 6.13628653c.0217018.53385482-.0991759 1.06385692-.3502041 1.53551015-.3306992-.12939961-.6350048-.3180691-.8979592-.55673468-.2587202-.24726751-.4503033-.55627249-.5567346-.89795915-.0895062-.33839471-.0272213-.69899174.1706122-.98775506.221873-.29152686.6078456-.40440566.9518367-.27836734.2211331.09321801.3957528.27107143.4848979.49387753.1465624.19936443.2166661.44472772.1975511.69142855z" fill="#996441"/><path fill="#B3B3B3" d="M56.5175489 129.426078l2.3436734.314285 6.5820405-2.62204.1436735-5.396735H62.955916l-1.1853061 3.394286-3.537959 2.280816zM48.0497941 126.588527c2.1697638-1.317526 4.4257466-2.487517 6.7526528-3.502041l.8979592 2.837551c-1.1853061.700408-10.0391833 4.40898-10.640816 3.591837.8711946-1.096269 1.8756772-2.079636 2.990204-2.927347z"/><path d="M54.030202 43.7338361c-1.2212244-.3861224-2.4155101-.8440816-3.6367345-1.2930612-.7618429-.3100695-1.2007921-1.1129337-1.0506122-1.9216325.4938775-2.2718367 3.5918366-.9787755 5.0734692-.7004082-.4165173 1.2604498-.5483893 2.5975702-.3861225 3.9151019z" fill="#996441"/><path d="M55.9248958 44.3264892c-.6285714-.1706123-1.2661224-.3861225-1.8946938-.5926531-.1754412-1.3347897-.0307773-2.6921675.4220408-3.9599998.4938776.0718367 1.0146939.1795918 1.5085714.2514285-.6932828 1.3469462-.7066101 2.942888-.0359184 4.3012244z" fill="#38B74A"/><path d="M78.5714256 43.7697545c-.0587292 2.0328237-1.7472402 3.6371096-3.780408 3.5918366-6.4054491-.1682292-12.7608163-1.1796534-18.9020401-3.0081632-.6483149-1.3696812-.6083305-2.9657243.1077551-4.3012243 1.7151019.242449 3.4661223.4130612 5.208163.5567347 3.5697029.2366281 7.1528875.176558 10.7126527-.1795918 1.472653-.1346939 3.1159182-.7004082 4.4897957 0 1.3287361.5754693 2.1819857 1.8925185 2.1640816 3.340408z" fill="#996441"/><path d="M53.0155082 6.30689877c.151066.11006264.2539639.27405619.2873469.45795916.1490575.95802935.9884486 1.65495501 1.957551 1.62530606.9939585.10017535 1.9140452-.53476049 2.1730611-1.49959177.0870412-.21651497.2883506-.36576157.5208163-.38612244.2338836-.00844899.4456013.13756321.5208163.35918366.2565442.9695955 1.1855344 1.60421434 2.1820408 1.49061219.963639.013965 1.7940815-.67553082 1.9575509-1.62530606.0296576-.1853254.1333795-.35063209.2873469-.45795917.197551-.16163265.1616327-.78122446.1616327-.89795915 0-.11673469 0-.19755101-.1616327-.19755101h-2.0832652c-.6753948-.01026401-1.3472692.09918159-1.9844897.32326529-.5319565.26314931-1.1562068.26314931-1.6881632 0-.630996-.22505431-1.2966219-.33751165-1.9665306-.33224488h-2.0832652c-.1346939 0-.1616326.06285714-.1616326.19755101-.0379618.31650302-.0104536.63743109.0808163.94285711zm6.285714-.65551018c.7766298-.1578658 1.5711421-.2092221 2.3616326-.15265306.5208163.06285714.6555102.12571428.6555102.52081631 0 .39510203 0 2.04734686-1.6881632 2.08326523-.779496.08019069-1.5158214-.37264947-1.7959183-1.10448976-.2604082-.88897956-.197551-1.11346934.4579591-1.34693872h.0089796zm-5.5673467.45795916c0-.38612243.1616327-.45795916.6555102-.5208163.7923282-.08191788 1.5926621-.03644437 2.3706121.13469387.6555102.18857142.7183674.4220408.4579592 1.32897954-.2603628.9621025-1.2513668 1.53097492-2.2134693 1.27061213-.9621025-.2603628-1.5309749-1.25136671-1.2706122-2.21346924z" fill="#D9D9D9"/><path d="M59.8310181 10.8864904c.1257143-.1346938.3232653.0718368.1975511.197551-.4257731.4025275-1.0917779.4025275-1.517551 0-.1257143-.1257142.0538775-.3053061.2065306-.2065306.318531.2795157.7949383.2795157 1.1134693 0v.0089796zM54.7485694 7.12404159c-.0566353.03467342-.1296539.02601555-.1766103-.02094079-.0469563-.04695634-.0556142-.11997498-.0209408-.17661022.4239468-.40709182 1.0936042-.40709182 1.517551 0 .1257143.12571428-.0538775.30530611-.2065306.19755101-.3185311-.27951568-.7949383-.27951568-1.1134693 0zM59.6693855 7.12404159c-.1257143.12571428-.3322449-.07183673-.2065306-.19755101.4269703-.4082189 1.0995603-.4082189 1.5265305 0 .1257143.12571428-.0538775.30530611-.2065306.19755101-.318531-.27951568-.7949383-.27951568-1.1134693 0z" fill="#454C57"/><path fill="#55626F" d="M28.8155088 66.757508h-3.47510191V49.8040393h3.47510191z"/><path fill="#1F72B8" d="M30.0277536 59.9509777h-5.89959161v-5.80081611h5.89959161zM23.2930603 63.7942435h7.5608161l1.867755 6.7346936H21.4163257z"/><path fill="#55626F" d="M40.8302025 137.022812h1.6253061L33.565713 68.7419984h-2.5771427zM26.2563255 137.022812h1.6342857l.9159183-68.2808136h-3.4751019zM11.6824485 137.022812h1.6342857l9.8416323-68.2808136h-2.5861224"/><path stroke="#231F20" stroke-width=".5" fill="#7D7D82" d="M31.3208154 49.2473052h-1v-1h1z"/><rect fill="#38B74A" transform="rotate(180 35.182039 34.601592)" x="33.8799987" y="34.0089385" width="2.60408153" height="1.18530608" rx=".39510203"/><path d="M16.5673463 35.5534283h1.6163265v-.4220408c0-.2678018.2170962-.484898.4848979-.484898h2.6310203c.2692924-.0000445.4889813.2156501.4938776.484898v.4669387h1.427755l1.0685714-1.7061224c.190753-.3120138.5323043-.499867.8979591-.4940251h3.6816326c.3634201-.0059588.7037412.1778146.8979591.4850456l1.0955102 1.7151019h6.680816c1.0265734 0 1.8587755.8322021 1.8587755 1.8587755v10.3624486c0 1.0265733-.8322021 1.8587754-1.8587755 1.8587754H16.5673463c-1.0019456-.0339014-1.7964917-.8562566-1.7959186-1.8587754V37.4122037c-.0005731-1.0025188.793973-1.824874 1.7959186-1.8587754z" fill="#55626F"/><circle fill="#38B74A" cx="36.7804068" cy="39.5673057" r="1"/><circle fill="#38B74A" cx="26.839999" cy="43.1411831" r="5.80081611"/><circle fill="#E5E2DF" cx="26.8130602" cy="43.1411831" r="5.45061204"/><circle fill="#4C5763" cx="26.8130602" cy="43.1411831" r="4.857959"/><path d="M24.2359174 45.5566932c1.431403.0000029 2.7794625-.6731938 3.6394339-1.817468.8599715-1.1442742 1.1317097-2.6263729.7336272-4.0013073 1.4434597.6924191 2.3099115 2.2037718 2.1781108 3.7992807-.1318007 1.5955089-1.2345126 2.9441943-2.7720279 3.3903631-1.5375154.4461688-3.190885-.1027344-4.1562868-1.3798481l.3771428.0089796z" fill="url(#b)"/></g></g></svg>